<?xml version="1.0" encoding="UTF-8" standalone="no"?>
<svg xmlns="http://www.w3.org/2000/svg" viewBox="0 0 24 24" version="1.1">
  <rect fill="#ddeeff" ry="12" rx="12" y="0" x="0" height="24" width="24" />
  <rect fill="#336699" ry="10" rx="10" y="2" x="2" height="20" width="20" />
  <rect fill="#ffffff" ry="8" rx="8" y="4" x="4" height="16" width="16" />
  <!-- <g transform="rotate(35 12 12)">
    <path fill="#333333" stroke="#333333" stroke-width="2" stroke-linecap="square" stroke-linejoin="round" d="M12,18 12,18 12,15 16,14 16,11 14,10 14,7 14,10 10,10 10,7 10,10 8,11 8,14 12,15 12,16Z" />
  </g> -->

  <path fill="#333333"
    stroke="#333333" stroke-width=".75" stroke-linecap="square" stroke-linejoin="round"
    d="M7,14 7,16 10,16 10,14Z
       M14,14 14,16 17,16 17,14Z
       M11,6 11,10 13,10 13,6Z"
  />
</svg>
